<?xml version="1.0" encoding="UTF-8" standalone="no"?><!DOCTYPE svg PUBLIC "-//W3C//DTD SVG 1.1//EN" "http://www.w3.org/Graphics/SVG/1.1/DTD/svg11.dtd"><svg width="100%" height="100%" viewBox="0 0 239 209" version="1.1" xmlns="http://www.w3.org/2000/svg" xmlns:xlink="http://www.w3.org/1999/xlink" xml:space="preserve" xmlns:serif="http://www.serif.com/" style="fill-rule:evenodd;clip-rule:evenodd;"><g id="Layer-1" serif:id="Layer 1"><path d="M49.43,170.009c0,-3.498 -0.595,-6.113 -1.784,-7.848c-1.188,-1.73 -3.014,-2.597 -5.473,-2.597c-1.396,0 -2.801,0.304 -4.212,0.91c-1.407,0.607 -2.76,1.402 -4.053,2.392l0,16.448c1.376,0.625 2.56,1.049 3.552,1.273c0.987,0.227 2.114,0.338 3.369,0.338c2.703,0 4.812,-0.92 6.328,-2.754c1.512,-1.838 2.273,-4.557 2.273,-8.162m5.055,-0.127c0,2.352 -0.333,4.496 -1.007,6.443c-0.674,1.946 -1.625,3.592 -2.846,4.94c-1.141,1.281 -2.485,2.269 -4.03,2.969c-1.545,0.701 -3.175,1.05 -4.901,1.05c-1.5,0 -2.862,-0.164 -4.08,-0.49c-1.213,-0.33 -2.456,-0.84 -3.713,-1.531l0,12.137l-4.881,0l0,-39.674l4.881,0l0,3.054c1.293,-1.089 2.751,-2 4.363,-2.736c1.612,-0.736 3.336,-1.101 5.163,-1.101c3.483,0 6.198,1.318 8.141,3.955c1.941,2.638 2.91,6.298 2.91,10.984" style="fill:#005a9c;fill-rule:nonzero;"/><path d="M49.43,170.009c0,-3.498 -0.595,-6.113 -1.784,-7.848c-1.188,-1.73 -3.014,-2.597 -5.473,-2.597c-1.396,0 -2.801,0.304 -4.212,0.91c-1.407,0.607 -2.76,1.402 -4.053,2.392l0,16.448c1.376,0.625 2.56,1.049 3.552,1.273c0.987,0.227 2.114,0.338 3.369,0.338c2.703,0 4.812,-0.92 6.328,-2.754c1.512,-1.838 2.273,-4.557 2.273,-8.162Zm5.055,-0.127c0,2.352 -0.333,4.496 -1.007,6.443c-0.674,1.946 -1.625,3.592 -2.846,4.94c-1.141,1.281 -2.485,2.269 -4.03,2.969c-1.545,0.701 -3.175,1.05 -4.901,1.05c-1.5,0 -2.862,-0.164 -4.08,-0.49c-1.213,-0.33 -2.456,-0.84 -3.713,-1.531l0,12.137l-4.881,0l0,-39.674l4.881,0l0,3.054c1.293,-1.089 2.751,-2 4.363,-2.736c1.612,-0.736 3.336,-1.101 5.163,-1.101c3.483,0 6.198,1.318 8.141,3.955c1.941,2.638 2.91,6.298 2.91,10.984Z" style="fill:none;stroke:#005a9c;stroke-width:2.38px;"/><path d="M87.478,184.675l-4.883,0l0,-16.482c0,-1.331 -0.075,-2.579 -0.232,-3.745c-0.154,-1.166 -0.437,-2.076 -0.849,-2.732c-0.43,-0.727 -1.049,-1.268 -1.857,-1.621c-0.808,-0.356 -1.858,-0.531 -3.146,-0.531c-1.325,0 -2.704,0.328 -4.148,0.984c-1.447,0.658 -2.83,1.494 -4.156,2.514l0,21.613l-4.881,0l0,-40.371l4.881,0l0,14.654c1.518,-1.262 3.083,-2.246 4.702,-2.953c1.618,-0.709 3.281,-1.062 4.988,-1.062c3.114,0 5.493,0.941 7.128,2.822c1.636,1.883 2.453,4.594 2.453,8.133l0,18.777Z" style="fill:#005a9c;fill-rule:nonzero;stroke:#005a9c;stroke-width:2.38px;"/><path d="M123.174,155.726l-16.9,39.674l-5.204,0l5.386,-12.092l-11.534,-27.582l5.292,0l8.886,21.469l8.952,-21.469l5.122,0Z" style="fill:#005a9c;fill-rule:nonzero;stroke:#005a9c;stroke-width:2.38px;"/><path d="M151.455,176.241c0,2.643 -1.092,4.811 -3.272,6.504c-2.183,1.695 -5.163,2.539 -8.937,2.539c-2.141,0 -4.102,-0.258 -5.887,-0.766c-1.784,-0.513 -3.28,-1.07 -4.488,-1.677l0,-5.493l0.26,0c1.522,1.176 3.225,2.108 5.095,2.799c1.869,0.694 3.661,1.039 5.376,1.039c2.128,0 3.79,-0.345 4.994,-1.043c1.2,-0.693 1.802,-1.785 1.802,-3.279c0,-1.139 -0.328,-2.002 -0.983,-2.59c-0.653,-0.59 -1.906,-1.092 -3.765,-1.506c-0.687,-0.154 -1.587,-0.334 -2.696,-0.541c-1.108,-0.209 -2.119,-0.433 -3.031,-0.675c-2.527,-0.674 -4.319,-1.663 -5.379,-2.969c-1.055,-1.301 -1.585,-2.903 -1.585,-4.805c0,-1.191 0.244,-2.314 0.74,-3.369c0.493,-1.053 1.237,-1.992 2.24,-2.826c0.967,-0.811 2.2,-1.453 3.695,-1.926c1.496,-0.475 3.168,-0.715 5.015,-0.715c1.728,0 3.48,0.213 5.252,0.637c1.769,0.426 3.244,0.939 4.421,1.547l0,5.226l-0.259,0c-1.238,-0.927 -2.747,-1.709 -4.514,-2.351c-1.772,-0.641 -3.512,-0.961 -5.213,-0.961c-1.77,0 -3.267,0.342 -4.487,1.029c-1.223,0.688 -1.834,1.707 -1.834,3.061c0,1.191 0.373,2.09 1.109,2.693c0.725,0.605 1.893,1.1 3.512,1.479c0.891,0.205 1.892,0.416 3.003,0.623c1.108,0.207 2.035,0.398 2.773,0.568c2.253,0.518 3.989,1.41 5.211,2.668c1.221,1.281 1.832,2.975 1.832,5.08" style="fill:#005a9c;fill-rule:nonzero;"/><path d="M151.455,176.241c0,2.643 -1.092,4.811 -3.272,6.504c-2.183,1.695 -5.163,2.539 -8.937,2.539c-2.141,0 -4.102,-0.258 -5.887,-0.766c-1.784,-0.513 -3.28,-1.07 -4.488,-1.677l0,-5.493l0.26,0c1.522,1.176 3.225,2.108 5.095,2.799c1.869,0.694 3.661,1.039 5.376,1.039c2.128,0 3.79,-0.345 4.994,-1.043c1.2,-0.693 1.802,-1.785 1.802,-3.279c0,-1.139 -0.328,-2.002 -0.983,-2.59c-0.653,-0.59 -1.906,-1.092 -3.765,-1.506c-0.687,-0.154 -1.587,-0.334 -2.696,-0.541c-1.108,-0.209 -2.119,-0.433 -3.031,-0.675c-2.527,-0.674 -4.319,-1.663 -5.379,-2.969c-1.055,-1.301 -1.585,-2.903 -1.585,-4.805c0,-1.191 0.244,-2.314 0.74,-3.369c0.493,-1.053 1.237,-1.992 2.24,-2.826c0.967,-0.811 2.2,-1.453 3.695,-1.926c1.496,-0.475 3.168,-0.715 5.015,-0.715c1.728,0 3.48,0.213 5.252,0.637c1.769,0.426 3.244,0.939 4.421,1.547l0,5.226l-0.259,0c-1.238,-0.927 -2.747,-1.709 -4.514,-2.351c-1.772,-0.641 -3.512,-0.961 -5.213,-0.961c-1.77,0 -3.267,0.342 -4.487,1.029c-1.223,0.688 -1.834,1.707 -1.834,3.061c0,1.191 0.373,2.09 1.109,2.693c0.725,0.605 1.893,1.1 3.512,1.479c0.891,0.205 1.892,0.416 3.003,0.623c1.108,0.207 2.035,0.398 2.773,0.568c2.253,0.518 3.989,1.41 5.211,2.668c1.221,1.281 1.832,2.975 1.832,5.08Z" style="fill:none;stroke:#005a9c;stroke-width:2.38px;"/><rect x="159.673" y="155.726" width="4.885" height="28.949" style="fill:#005a9c;stroke:#005a9c;stroke-width:2.38px;"/><path d="M196.824,182.816c-1.616,0.779 -3.149,1.387 -4.604,1.82c-1.45,0.434 -2.995,0.649 -4.626,0.649c-2.083,0 -3.992,-0.309 -5.726,-0.922c-1.739,-0.615 -3.226,-1.545 -4.462,-2.791c-1.254,-1.248 -2.227,-2.824 -2.915,-4.729c-0.689,-1.904 -1.033,-4.131 -1.033,-6.677c0,-4.745 1.295,-8.469 3.879,-11.168c2.59,-2.705 6.008,-4.055 10.257,-4.055c1.649,0 3.268,0.234 4.862,0.701c1.589,0.469 3.045,1.039 4.368,1.715l0,5.432l-0.255,0c-1.475,-1.149 -3.002,-2.032 -4.571,-2.651c-1.571,-0.615 -3.105,-0.926 -4.595,-0.926c-2.749,0 -4.918,0.93 -6.508,2.786c-1.588,1.853 -2.379,4.576 -2.379,8.166c0,3.488 0.776,6.166 2.331,8.037c1.551,1.875 3.736,2.81 6.556,2.81c0.977,0 1.972,-0.129 2.984,-0.385c1.014,-0.255 1.922,-0.591 2.732,-1.003c0.699,-0.36 1.362,-0.741 1.981,-1.143c0.619,-0.404 1.11,-0.754 1.469,-1.045l0.255,0l0,5.379Z" style="fill:#005a9c;fill-rule:nonzero;stroke:#005a9c;stroke-width:2.38px;"/><path d="M225.013,176.241c0,2.643 -1.092,4.811 -3.272,6.504c-2.184,1.695 -5.163,2.539 -8.936,2.539c-2.143,0 -4.103,-0.258 -5.887,-0.766c-1.786,-0.513 -3.281,-1.07 -4.486,-1.677l0,-5.493l0.255,0c1.527,1.176 3.225,2.108 5.097,2.799c1.869,0.694 3.662,1.039 5.38,1.039c2.124,0 3.787,-0.345 4.989,-1.043c1.205,-0.693 1.801,-1.785 1.801,-3.279c0,-1.139 -0.325,-2.002 -0.98,-2.59c-0.651,-0.59 -1.908,-1.092 -3.768,-1.506c-0.686,-0.154 -1.585,-0.334 -2.693,-0.541c-1.108,-0.209 -2.119,-0.433 -3.03,-0.675c-2.529,-0.674 -4.323,-1.663 -5.38,-2.969c-1.056,-1.301 -1.586,-2.903 -1.586,-4.805c0,-1.191 0.247,-2.314 0.74,-3.369c0.492,-1.053 1.24,-1.992 2.241,-2.826c0.967,-0.811 2.197,-1.453 3.698,-1.926c1.488,-0.475 3.164,-0.715 5.014,-0.715c1.726,0 3.477,0.213 5.249,0.637c1.77,0.426 3.244,0.939 4.419,1.547l0,5.226l-0.257,0c-1.241,-0.927 -2.746,-1.709 -4.517,-2.351c-1.769,-0.641 -3.504,-0.961 -5.211,-0.961c-1.768,0 -3.27,0.342 -4.486,1.029c-1.223,0.688 -1.833,1.707 -1.833,3.061c0,1.191 0.368,2.09 1.108,2.693c0.725,0.605 1.892,1.1 3.508,1.479c0.893,0.205 1.899,0.416 3.005,0.623c1.108,0.207 2.036,0.398 2.776,0.568c2.251,0.518 3.988,1.41 5.21,2.668c1.22,1.281 1.832,2.975 1.832,5.08" style="fill:#005a9c;fill-rule:nonzero;"/><path d="M225.013,176.241c0,2.643 -1.092,4.811 -3.272,6.504c-2.184,1.695 -5.163,2.539 -8.936,2.539c-2.143,0 -4.103,-0.258 -5.887,-0.766c-1.786,-0.513 -3.281,-1.07 -4.486,-1.677l0,-5.493l0.255,0c1.527,1.176 3.225,2.108 5.097,2.799c1.869,0.694 3.662,1.039 5.38,1.039c2.124,0 3.787,-0.345 4.989,-1.043c1.205,-0.693 1.801,-1.785 1.801,-3.279c0,-1.139 -0.325,-2.002 -0.98,-2.59c-0.651,-0.59 -1.908,-1.092 -3.768,-1.506c-0.686,-0.154 -1.585,-0.334 -2.693,-0.541c-1.108,-0.209 -2.119,-0.433 -3.03,-0.675c-2.529,-0.674 -4.323,-1.663 -5.38,-2.969c-1.056,-1.301 -1.586,-2.903 -1.586,-4.805c0,-1.191 0.247,-2.314 0.74,-3.369c0.492,-1.053 1.24,-1.992 2.241,-2.826c0.967,-0.811 2.197,-1.453 3.698,-1.926c1.488,-0.475 3.164,-0.715 5.014,-0.715c1.726,0 3.477,0.213 5.249,0.637c1.77,0.426 3.244,0.939 4.419,1.547l0,5.226l-0.257,0c-1.241,-0.927 -2.746,-1.709 -4.517,-2.351c-1.769,-0.641 -3.504,-0.961 -5.211,-0.961c-1.768,0 -3.27,0.342 -4.486,1.029c-1.223,0.688 -1.833,1.707 -1.833,3.061c0,1.191 0.368,2.09 1.108,2.693c0.725,0.605 1.892,1.1 3.508,1.479c0.893,0.205 1.899,0.416 3.005,0.623c1.108,0.207 2.036,0.398 2.776,0.568c2.251,0.518 3.988,1.41 5.21,2.668c1.22,1.281 1.832,2.975 1.832,5.08Z" style="fill:none;stroke:#005a9c;stroke-width:2.38px;"/><path d="M62.152,54.493l-11.865,29.847l23.581,0l-11.716,-29.847Zm1.213,-12.781l3.255,0l23.89,60.868c0.955,2.449 2.913,3.67 5.874,3.67l2.064,0l0,3.429l-26.532,0l0,-3.429l2.114,0c2.758,0 4.705,-0.299 5.846,-0.894c0.777,-0.416 1.169,-1.057 1.169,-1.923c0,-0.508 -0.106,-1.044 -0.316,-1.611l-5.518,-14.054l-26.288,0l-3.204,8.056c-0.808,2.148 -1.213,3.848 -1.213,5.101c0,1.462 0.681,2.717 2.046,3.761c1.368,1.043 3.359,1.564 5.972,1.564l2.251,0l0,3.429l-24.144,0l0,-3.429c2.583,0 4.625,-0.558 6.132,-1.676c1.503,-1.118 2.886,-3.245 4.148,-6.378l22.454,-56.484Z" style="fill:#231f20;fill-rule:nonzero;"/><path d="M193.101,48.667l4.068,-5.963l3.131,0l0.3,24.295l-3.132,0c-1.848,-7.4 -4.587,-12.804 -8.208,-16.208c-3.627,-3.403 -7.794,-5.106 -12.505,-5.106c-3.935,0 -7.156,1.181 -9.664,3.538c-2.506,2.359 -3.757,5.24 -3.757,8.645c0,2.12 0.481,3.978 1.443,5.575c0.959,1.598 2.393,2.897 4.301,3.896c1.909,1.002 5.491,2.083 10.756,3.244c7.382,1.654 12.573,3.307 15.567,4.957c2.995,1.65 5.23,3.729 6.708,6.233c1.475,2.507 2.216,5.441 2.216,8.802c0,6.003 -2.026,10.978 -6.08,14.924c-4.053,3.945 -9.284,5.916 -15.698,5.916c-6.9,0 -12.891,-2.234 -17.984,-6.706l-5.104,6.261l-3.129,0l0,-25.786l3.129,0c1.262,7.098 4.092,12.697 8.486,16.8c4.389,4.104 9.343,6.154 14.85,6.154c4.454,0 8.085,-1.309 10.899,-3.93c2.815,-2.618 4.221,-5.798 4.221,-9.541c0,-2.124 -0.525,-3.987 -1.572,-5.589c-1.052,-1.603 -2.712,-2.952 -4.985,-4.05c-2.277,-1.097 -6.755,-2.427 -13.427,-3.992c-7.337,-1.744 -12.349,-3.696 -15.039,-5.852c-3.778,-3.054 -5.668,-7.381 -5.668,-12.982c0,-5.838 1.873,-10.622 5.623,-14.351c3.75,-3.728 8.547,-5.594 14.394,-5.594c2.799,0 5.469,0.494 7.998,1.479c2.532,0.988 5.154,2.629 7.862,4.931" style="fill:#231f20;fill-rule:nonzero;"/><path d="M118.475,76.195l9.023,0c5.718,0 9.843,-1.19 12.372,-3.573c2.53,-2.381 3.794,-6.316 3.794,-11.802c0,-3.836 -0.571,-6.778 -1.707,-8.833c-1.137,-2.055 -2.806,-3.575 -5.004,-4.565c-2.201,-0.987 -5.814,-1.484 -10.844,-1.484c-3.323,0 -5.427,0.317 -6.309,0.945c-0.886,0.629 -1.325,1.725 -1.325,3.282l0,26.03Zm-20.122,-33.238l32.88,0c7.425,0 13.095,1.686 17.003,5.058c3.907,3.373 5.861,7.781 5.861,13.231c0,5.449 -1.803,9.602 -5.404,12.462c-4.954,3.945 -11.063,5.916 -18.328,5.916l-11.89,0l0,22.632c0,1.315 0.313,2.256 0.937,2.823c0.829,0.718 1.945,1.074 3.345,1.074l7.492,0l0,3.43l-31.896,0l0,-3.43l6.722,0c1.331,0 2.306,-0.26 2.928,-0.785c0.619,-0.526 0.931,-1.236 0.931,-2.137l0,-53.025c0,-1.348 -0.393,-2.321 -1.18,-2.922c-0.786,-0.598 -2.271,-0.899 -4.449,-0.899l-4.952,0l0,-3.428Z" style="fill:#231f20;fill-rule:nonzero;"/><path d="M70.102,93.958c-33.217,-24.428 -56.235,-53.461 -48.557,-67.905c6.648,-12.503 31.437,-13.392 63.173,-4.392c-36.583,-11.491 -65.703,-11.31 -73.174,2.738c-8.495,15.984 17.898,48.235 56.122,75.087c8.894,5.951 18.587,11.689 28.873,17.154c58.483,31.102 114.664,39.824 125.477,19.488c2.941,-5.539 2.217,-12.662 -1.578,-20.72c2.312,6.254 2.462,11.806 0.094,16.265c-10.232,19.235 -63.361,10.981 -118.679,-18.425c-11.523,-6.131 -22.106,-12.563 -31.751,-19.29Z" style="fill:#005a9c;fill-rule:nonzero;stroke:#005a9c;stroke-width:0.6px;"/><path d="M152.52,138.196c0,-5.15 4.178,-9.328 9.332,-9.328c5.151,0 9.33,4.178 9.33,9.328c0,5.154 -4.179,9.33 -9.33,9.33c-5.154,0 -9.332,-4.176 -9.332,-9.33" style="fill:#231f20;fill-rule:nonzero;"/><path d="M220.998,144.223l-2.039,0l0,-0.736l4.964,0l0,0.736l-2.049,0l0,5.97l-0.876,0l0,-5.97Z" style="fill:#231f20;fill-rule:nonzero;"/><path d="M230.301,147.247c-0.05,-0.936 -0.109,-2.069 -0.109,-2.895l-0.021,0c-0.238,0.776 -0.507,1.622 -0.846,2.547l-1.183,3.252l-0.656,0l-1.095,-3.193c-0.319,-0.955 -0.577,-1.811 -0.766,-2.606l-0.02,0c-0.02,0.835 -0.07,1.95 -0.129,2.965l-0.18,2.875l-0.825,0l0.468,-6.706l1.103,0l1.145,3.243c0.278,0.827 0.497,1.563 0.676,2.259l0.02,0c0.18,-0.677 0.418,-1.413 0.717,-2.259l1.193,-3.243l1.105,0l0.418,6.706l-0.856,0l-0.159,-2.945Z" style="fill:#231f20;fill-rule:nonzero;"/></g></svg>